<svg xmlns="http://www.w3.org/2000/svg" viewBox="0 0 900 700" width="900" height="700">
  <defs>
    <filter id="glow"><feGaussianBlur stdDeviation="3.5" result="b"/><feMerge><feMergeNode in="b"/><feMergeNode in="SourceGraphic"/></feMerge></filter>
  </defs>
  <g fill="none" stroke="#3E9C76" stroke-width="2" opacity="0.55">
    <path d="M50 620 L50 480 L180 480 L180 340"/>
    <path d="M50 620 L220 620 L220 520 L350 520"/>
    <path d="M820 120 L820 260 L680 260 L680 400"/>
    <path d="M850 500 L700 500 L700 560 L560 560"/>
    <path d="M120 120 L300 120 L300 220"/>
  </g>
  <g fill="#3E9C76" opacity="0.85">
    <circle cx="50" cy="620" r="5"/><circle cx="180" cy="340" r="5"/>
    <circle cx="220" cy="620" r="5"/><circle cx="350" cy="520" r="5"/>
    <circle cx="820" cy="120" r="5"/><circle cx="680" cy="400" r="5"/>
    <circle cx="850" cy="500" r="5"/><circle cx="560" cy="560" r="5"/>
    <circle cx="120" cy="120" r="5"/><circle cx="300" cy="220" r="5"/>
  </g>
  <g transform="translate(230,180)" filter="url(#glow)">
    <rect x="0" y="0" width="440" height="340" rx="26" fill="none" stroke="#C97A4A" stroke-width="3"/>
    <rect x="40" y="40" width="360" height="260" rx="14" fill="none" stroke="#3E9C76" stroke-width="2"/>
    <circle cx="220" cy="170" r="70" fill="none" stroke="#C97A4A" stroke-width="3"/>
    <circle cx="220" cy="170" r="30" fill="none" stroke="#3E9C76" stroke-width="2.5"/>
    <line x1="0" y1="90" x2="-30" y2="90" stroke="#C97A4A" stroke-width="3"/>
    <line x1="0" y1="250" x2="-30" y2="250" stroke="#C97A4A" stroke-width="3"/>
    <line x1="440" y1="90" x2="470" y2="90" stroke="#C97A4A" stroke-width="3"/>
    <line x1="440" y1="250" x2="470" y2="250" stroke="#C97A4A" stroke-width="3"/>
  </g>
</svg>