<svg xmlns="http://www.w3.org/2000/svg" viewBox="0 0 300 220" width="300" height="220">
<rect x="45" y="70" width="210" height="90" rx="10" fill="none" stroke="#C97A4A" stroke-width="4"/>
<rect x="60" y="86" width="18" height="18" rx="3" fill="none" stroke="#3E9C76" stroke-width="2.5"/><rect x="84" y="86" width="18" height="18" rx="3" fill="none" stroke="#3E9C76" stroke-width="2.5"/><rect x="108" y="86" width="18" height="18" rx="3" fill="none" stroke="#3E9C76" stroke-width="2.5"/><rect x="132" y="86" width="18" height="18" rx="3" fill="none" stroke="#3E9C76" stroke-width="2.5"/><rect x="156" y="86" width="18" height="18" rx="3" fill="none" stroke="#3E9C76" stroke-width="2.5"/><rect x="180" y="86" width="18" height="18" rx="3" fill="none" stroke="#3E9C76" stroke-width="2.5"/><rect x="204" y="86" width="18" height="18" rx="3" fill="none" stroke="#3E9C76" stroke-width="2.5"/><rect x="228" y="86" width="18" height="18" rx="3" fill="none" stroke="#3E9C76" stroke-width="2.5"/><rect x="60" y="110" width="18" height="18" rx="3" fill="none" stroke="#3E9C76" stroke-width="2.5"/><rect x="84" y="110" width="18" height="18" rx="3" fill="none" stroke="#3E9C76" stroke-width="2.5"/><rect x="108" y="110" width="18" height="18" rx="3" fill="none" stroke="#3E9C76" stroke-width="2.5"/><rect x="132" y="110" width="18" height="18" rx="3" fill="none" stroke="#3E9C76" stroke-width="2.5"/><rect x="156" y="110" width="18" height="18" rx="3" fill="none" stroke="#3E9C76" stroke-width="2.5"/><rect x="180" y="110" width="18" height="18" rx="3" fill="none" stroke="#3E9C76" stroke-width="2.5"/><rect x="204" y="110" width="18" height="18" rx="3" fill="none" stroke="#3E9C76" stroke-width="2.5"/><rect x="228" y="110" width="18" height="18" rx="3" fill="none" stroke="#3E9C76" stroke-width="2.5"/><rect x="60" y="134" width="18" height="18" rx="3" fill="none" stroke="#3E9C76" stroke-width="2.5"/><rect x="84" y="134" width="18" height="18" rx="3" fill="none" stroke="#3E9C76" stroke-width="2.5"/><rect x="108" y="134" width="18" height="18" rx="3" fill="none" stroke="#3E9C76" stroke-width="2.5"/><rect x="132" y="134" width="18" height="18" rx="3" fill="none" stroke="#3E9C76" stroke-width="2.5"/><rect x="156" y="134" width="18" height="18" rx="3" fill="none" stroke="#3E9C76" stroke-width="2.5"/><rect x="180" y="134" width="18" height="18" rx="3" fill="none" stroke="#3E9C76" stroke-width="2.5"/><rect x="204" y="134" width="18" height="18" rx="3" fill="none" stroke="#3E9C76" stroke-width="2.5"/><rect x="228" y="134" width="18" height="18" rx="3" fill="none" stroke="#3E9C76" stroke-width="2.5"/></svg>